<svg xmlns="http://www.w3.org/2000/svg" xmlns:xlink="http://www.w3.org/1999/xlink" width="400" zoomAndPan="magnify" viewBox="0 0 300 299.999988" height="400" preserveAspectRatio="xMidYMid meet" version="1.0"><defs><clipPath id="4c28121660"><path d="M 24.800781 13.546875 L 279 13.546875 L 279 171 L 24.800781 171 Z M 24.800781 13.546875 " clip-rule="nonzero"/></clipPath><clipPath id="5282744521"><path d="M 129 154 L 282.1875 154 L 282.1875 277.546875 L 129 277.546875 Z M 129 154 " clip-rule="nonzero"/></clipPath><clipPath id="e4d24e4b4e"><path d="M 24.800781 181 L 114 181 L 114 277.546875 L 24.800781 277.546875 Z M 24.800781 181 " clip-rule="nonzero"/></clipPath></defs><rect x="-30" width="360" fill="#ffffff" y="-29.999999" height="359.999986" fill-opacity="1"/><rect x="-30" width="360" fill="#ffffff" y="-29.999999" height="359.999986" fill-opacity="1"/><g clip-path="url(#4c28121660)"><path fill="#355146" d="M 108.191406 170.734375 C 115.117188 170.734375 128.898438 170.34375 147.949219 162.300781 C 170.144531 152.925781 214.3125 135.910156 246.167969 118.429688 C 268.449219 106.207031 278.214844 90.035156 278.214844 68.261719 C 278.21875 38.042969 254.332031 13.546875 224.871094 13.546875 L 101.425781 13.546875 C 59.105469 13.546875 24.800781 48.734375 24.800781 92.140625 C 24.800781 135.546875 56.921875 170.734375 108.191406 170.734375 Z M 108.191406 170.734375 " fill-opacity="1" fill-rule="evenodd"/></g><g clip-path="url(#5282744521)"><path fill="#d18ee2" d="M 129.074219 224.890625 C 129.074219 203.613281 141.5625 184.429688 160.722656 176.273438 L 199.597656 159.722656 C 238.921875 142.984375 282.199219 172.625 282.199219 216.292969 C 282.199219 250.125 255.457031 277.546875 222.46875 277.539062 L 180.382812 277.527344 C 152.042969 277.519531 129.074219 253.957031 129.074219 224.890625 Z M 129.074219 224.890625 " fill-opacity="1" fill-rule="evenodd"/></g><g clip-path="url(#e4d24e4b4e)"><path fill="#ff7759" d="M 68.972656 181.074219 C 44.578125 181.074219 24.800781 201.355469 24.800781 226.378906 L 24.800781 232.246094 C 24.800781 257.269531 44.578125 277.554688 68.972656 277.554688 C 93.367188 277.554688 113.144531 257.269531 113.144531 232.246094 L 113.144531 226.378906 C 113.144531 201.355469 93.367188 181.074219 68.972656 181.074219 Z M 68.972656 181.074219 " fill-opacity="1" fill-rule="nonzero"/></g></svg>