<?xml version="1.0" standalone="no"?>
<!DOCTYPE svg PUBLIC "-//W3C//DTD SVG 20010904//EN"
 "http://www.w3.org/TR/2001/REC-SVG-20010904/DTD/svg10.dtd">
<svg version="1.0" xmlns="http://www.w3.org/2000/svg"
 width="259.000000pt" height="194.000000pt" viewBox="0 0 259.000000 194.000000"
 preserveAspectRatio="xMidYMid meet">

<g transform="translate(0.000000,194.000000) scale(0.100000,-0.100000)"
fill="#000000" stroke="none">
<path d="M1270 1540 c-18 -11 -4 -42 17 -38 10 2 19 10 21 19 4 19 -19 31 -38
19z"/>
<path d="M1233 1483 c9 -2 25 -2 35 0 9 3 1 5 -18 5 -19 0 -27 -2 -17 -5z"/>
<path d="M1115 1466 c-70 -22 -150 -66 -196 -108 -44 -40 -30 -35 25 10 44 36
140 81 204 96 31 8 46 14 32 14 -14 1 -43 -5 -65 -12z"/>
<path d="M1275 1450 c4 -6 11 -8 16 -5 14 9 11 15 -7 15 -8 0 -12 -5 -9 -10z"/>
<path d="M1156 1424 c-69 -17 -144 -53 -198 -95 -27 -22 -46 -30 -63 -27 -17
4 -31 -2 -48 -21 -35 -39 -54 -66 -40 -58 6 4 14 3 18 -2 3 -6 11 -9 18 -7 7
1 9 1 6 -1 -3 -2 -4 -14 -2 -27 4 -17 -1 -27 -15 -35 -53 -28 -84 -207 -58
-331 22 -102 33 -111 79 -63 53 54 73 103 104 261 l28 140 38 4 c28 3 36 0 32
-10 -3 -8 -5 -16 -5 -18 0 -2 -6 -4 -14 -4 -8 0 -17 -7 -20 -16 -3 -8 -2 -12
4 -9 6 4 10 -6 10 -22 0 -21 -3 -24 -9 -14 -11 17 -12 16 -40 -136 -11 -56
-25 -111 -31 -122 -9 -17 -8 -20 5 -15 8 4 15 1 15 -6 0 -6 5 -8 11 -4 6 3 4
-7 -4 -23 -15 -29 -82 -73 -111 -73 -14 0 -21 -18 -17 -42 0 -5 -3 -8 -7 -8
-5 0 -9 -7 -9 -15 0 -8 2 -13 4 -11 3 2 22 -15 43 -38 31 -33 120 -96 120 -84
0 2 -6 21 -14 43 -11 33 -23 45 -72 72 -65 36 -67 45 -3 12 23 -11 43 -18 46
-15 3 3 1 19 -5 35 -9 25 -8 31 2 31 8 0 19 -19 25 -42 10 -41 14 -45 83 -75
116 -50 112 -49 99 -25 -7 12 -10 22 -7 22 2 0 19 -25 36 -56 76 -131 124
-125 200 27 37 72 53 185 33 227 -31 64 -162 93 -231 50 -52 -32 -63 -64 -53
-155 4 -43 7 -80 5 -82 -2 -2 -15 20 -29 50 -41 90 -30 223 21 243 13 5 15 2
10 -20 l-7 -26 28 26 c28 26 76 35 88 16 8 -13 42 -13 50 1 4 6 1 9 -6 7 -17
-3 -79 24 -79 34 0 5 9 8 20 8 18 0 20 7 20 73 0 39 -4 78 -9 85 -6 10 -27 13
-75 10 -36 -1 -66 0 -66 4 0 19 35 96 57 126 49 66 139 83 199 37 32 -24 76
-103 88 -158 6 -25 5 -27 -13 -18 -31 17 -111 14 -118 -4 -9 -24 5 -30 25 -12
23 21 71 22 78 2 4 -8 15 -15 25 -15 29 0 24 -40 -12 -113 -17 -34 -33 -63
-34 -65 -2 -2 -15 4 -29 13 -14 9 -31 15 -38 12 -8 -4 -7 -6 4 -6 10 -1 33
-15 53 -33 l36 -31 -7 27 c-5 22 -3 25 10 20 27 -11 46 -60 46 -121 0 -48 -7
-71 -41 -137 -22 -43 -38 -80 -36 -83 3 -2 41 12 85 32 79 36 101 58 105 103
1 14 8 22 20 22 10 0 15 -5 12 -10 -4 -6 -10 -24 -15 -40 -7 -24 -6 -28 8 -24
10 3 7 -1 -5 -7 -13 -7 -25 -28 -32 -55 -15 -57 -14 -58 11 -40 30 21 44 20
27 -1 -13 -16 -12 -17 3 -4 10 7 16 17 13 21 -5 8 54 65 67 65 4 0 19 12 33
28 21 22 23 28 11 33 -8 3 -28 -2 -45 -10 -16 -9 -34 -16 -38 -16 -4 1 9 10
30 21 32 17 36 22 27 39 -6 11 -20 20 -32 20 -30 0 -80 34 -101 68 -9 17 -24
56 -32 89 l-15 58 5 -49 c3 -29 18 -72 35 -103 33 -59 28 -66 -20 -27 -52 44
-59 68 -62 221 -3 129 -5 143 -31 192 -15 29 -27 54 -27 56 0 2 19 -5 43 -15
23 -11 54 -20 69 -20 25 0 27 -4 39 -70 14 -79 22 -91 40 -58 7 13 29 46 50
74 27 37 37 59 35 82 -2 25 2 32 16 32 10 0 18 5 18 10 0 6 -7 10 -15 10 -8 0
-15 6 -15 13 0 19 -33 47 -54 47 -10 0 -41 16 -68 36 -51 38 -150 83 -181 84
-15 0 -13 -6 13 -45 17 -24 38 -49 48 -54 9 -6 14 -11 9 -11 -10 0 39 -78 72
-113 l26 -29 -30 8 c-39 9 -122 50 -161 80 -16 13 -47 30 -67 39 -43 18 -51
51 -14 58 l22 4 -22 2 c-16 1 -23 7 -23 22 0 18 4 20 33 14 17 -4 47 -14 66
-21 19 -8 36 -12 38 -10 2 2 -11 20 -30 40 -36 37 -73 47 -83 21 -4 -8 -16
-15 -29 -15 -13 0 -25 7 -29 15 -7 18 -22 18 -100 -1z m18 -16 c-4 -7 -14 -21
-22 -31 -15 -17 -14 -17 19 -3 19 7 51 16 72 20 32 6 37 4 37 -12 0 -15 -9
-22 -35 -26 -19 -4 -37 -11 -40 -16 -4 -6 4 -6 20 0 39 15 55 12 55 -9 0 -12
-12 -24 -32 -32 -18 -7 -51 -25 -73 -40 -63 -42 -137 -78 -175 -85 l-35 -7 33
28 c39 32 94 110 85 119 -4 3 -1 6 5 6 6 0 28 23 49 50 35 47 53 65 37 38z
m-124 -113 c-14 -8 -29 -14 -35 -14 -5 0 1 6 15 14 14 8 30 14 35 14 6 0 -1
-6 -15 -14z m-190 -19 c0 -2 -8 -10 -17 -17 -16 -13 -17 -12 -4 4 13 16 21 21
21 13z m110 -16 c-8 -5 -19 -10 -25 -10 -5 0 -3 5 5 10 8 5 20 10 25 10 6 0 3
-5 -5 -10z m670 -10 c8 -5 11 -10 5 -10 -5 0 -17 5 -25 10 -8 5 -10 10 -5 10
6 0 17 -5 25 -10z m-740 -20 c-8 -5 -19 -10 -25 -10 -5 0 -3 5 5 10 8 5 20 10
25 10 6 0 3 -5 -5 -10z m790 0 c8 -5 11 -10 5 -10 -5 0 -17 5 -25 10 -8 5 -10
10 -5 10 6 0 17 -5 25 -10z m-820 -110 c6 -11 8 -20 6 -20 -3 0 -10 9 -16 20
-6 11 -8 20 -6 20 3 0 10 -9 16 -20z m-33 -277 c-1 -54 -3 -10 -3 97 0 107 2
151 3 98 2 -54 2 -142 0 -195z m78 217 c3 -6 -1 -7 -9 -4 -18 7 -21 14 -7 14
6 0 13 -4 16 -10z m25 -45 c14 -19 14 -19 -2 -6 -10 7 -18 18 -18 24 0 6 1 8
3 6 1 -2 9 -13 17 -24z m90 15 c0 -5 -4 -10 -10 -10 -5 0 -10 5 -10 10 0 6 5
10 10 10 6 0 10 -4 10 -10z m196 -15 c11 -27 11 -50 1 -62 -5 -7 -6 -13 -3
-13 4 0 0 -7 -8 -16 -9 -8 -16 -24 -16 -33 0 -10 -6 -24 -14 -30 -11 -10 -21
0 -50 53 -42 75 -46 103 -13 108 59 9 98 6 103 -7z m149 -241 c21 -23 35 -65
35 -103 0 -10 -17 3 -44 34 -36 41 -49 49 -80 51 -32 1 -43 -5 -82 -49 -41
-46 -44 -47 -44 -24 0 35 15 72 39 96 16 16 33 19 87 19 58 0 70 -4 89 -24z
m-365 -34 c0 -5 -2 -10 -4 -10 -3 0 -8 5 -11 10 -3 6 -1 10 4 10 6 0 11 -4 11
-10z m318 -40 c30 -40 28 -67 -12 -129 l-33 -53 -32 55 c-36 64 -38 88 -10
128 27 38 59 38 87 -1z"/>
<path d="M1340 1346 c0 -2 7 -7 16 -10 8 -3 12 -2 9 4 -6 10 -25 14 -25 6z"/>
<path d="M807 1194 c-9 -10 2 -24 19 -24 8 0 14 7 14 15 0 15 -21 21 -33 9z"/>
<path d="M1730 1185 c0 -8 7 -15 15 -15 8 0 15 7 15 15 0 8 -7 15 -15 15 -8 0
-15 -7 -15 -15z"/>
<path d="M1671 1065 c-49 -79 -53 -89 -47 -128 9 -60 47 -135 90 -181 30 -31
40 -36 47 -25 22 34 33 101 33 199 0 85 -4 116 -23 163 -12 31 -28 57 -34 57
-7 0 -36 -38 -66 -85z"/>
<path d="M1360 1041 c0 -13 27 -21 45 -15 25 10 17 24 -15 24 -16 0 -30 -4
-30 -9z"/>
<path d="M686 913 c-4 -11 -1 -22 8 -29 9 -6 16 -22 17 -35 1 -13 5 -4 10 20
5 24 6 48 3 52 -9 15 -32 10 -38 -8z"/>
<path d="M1841 917 c-11 -14 -6 -47 8 -47 17 1 33 19 29 35 -4 24 -22 29 -37
12z"/>
<path d="M1841 844 c0 -11 3 -14 6 -6 3 7 2 16 -1 19 -3 4 -6 -2 -5 -13z"/>
<path d="M721 804 c0 -11 3 -14 6 -6 3 7 2 16 -1 19 -3 4 -6 -2 -5 -13z"/>
<path d="M1831 794 c0 -11 3 -14 6 -6 3 7 2 16 -1 19 -3 4 -6 -2 -5 -13z"/>
<path d="M740 744 c0 -6 7 -19 16 -30 14 -18 14 -18 3 6 -14 31 -19 36 -19 24z"/>
<path d="M1785 680 c-9 -16 -13 -30 -11 -30 3 0 12 14 21 30 9 17 13 30 11 30
-3 0 -12 -13 -21 -30z"/>
<path d="M803 678 c2 -7 10 -13 17 -13 7 0 15 6 18 13 2 7 -5 12 -18 12 -13 0
-20 -5 -17 -12z"/>
<path d="M1730 675 c0 -8 7 -15 15 -15 8 0 15 7 15 15 0 8 -7 15 -15 15 -8 0
-15 -7 -15 -15z"/>
<path d="M1020 539 c14 -11 19 -18 13 -14 -7 3 -13 1 -13 -4 0 -14 60 -67 71
-63 5 1 8 -4 7 -10 -2 -7 3 -12 10 -10 6 1 12 -2 12 -7 0 -12 56 -31 93 -31
28 0 29 1 15 18 -9 9 -22 31 -31 47 -15 30 -50 48 -157 81 l-45 14 25 -21z"/>
<path d="M1468 526 c-68 -28 -82 -38 -108 -79 l-30 -47 33 1 c46 1 82 14 80
27 -2 6 3 9 10 6 16 -6 89 66 83 82 -3 7 0 16 6 20 7 5 8 2 3 -7 -5 -8 -4 -10
0 -6 11 9 16 37 7 36 -4 0 -42 -15 -84 -33z"/>
</g>
</svg>
