<?xml version="1.0" standalone="no"?>
<!DOCTYPE svg PUBLIC "-//W3C//DTD SVG 20010904//EN"
 "http://www.w3.org/TR/2001/REC-SVG-20010904/DTD/svg10.dtd">
<svg version="1.0" xmlns="http://www.w3.org/2000/svg"
 width="750.000000pt" height="1000.000000pt" viewBox="0 0 750.000000 1000.000000"
 preserveAspectRatio="xMidYMid meet">

<g transform="translate(0.000000,1000.000000) scale(0.100000,-0.100000)"
fill="#000000" stroke="none">
<path d="M1699 8645 c-166 -26 -316 -74 -463 -147 -444 -219 -748 -614 -859
-1116 -21 -97 -21 -99 -25 -2117 -3 -2250 -7 -2137 64 -2375 43 -143 142 -346
225 -465 121 -170 318 -349 503 -457 98 -58 253 -122 366 -153 214 -57 116
-55 2299 -55 1968 0 2011 0 2127 20 331 57 605 200 850 444 278 278 427 597
463 986 15 157 15 3818 0 3985 -33 381 -178 708 -432 972 -258 267 -562 425
-922 478 -143 21 -4062 21 -4196 0z m1386 -1778 l580 -534 3 613 2 614 130 0
130 0 0 -616 0 -616 43 38 c80 71 917 842 1179 1086 64 59 118 108 120 108 2
0 2 -315 0 -700 l-3 -700 278 -2 278 -3 0 -1015 0 -1015 -273 0 -272 0 0 -623
c0 -391 -4 -622 -10 -620 -5 2 -165 140 -356 308 -191 168 -489 430 -663 582
l-316 277 -3 -594 -2 -595 -130 0 -130 0 0 585 c0 322 -2 585 -5 585 -3 0 -23
-15 -43 -34 -20 -19 -318 -282 -662 -584 l-625 -550 -3 631 -2 632 -275 -3
-275 -3 0 1021 0 1020 275 0 275 0 0 701 0 701 88 -80 c48 -44 348 -321 667
-615z"/>
<path d="M2590 6561 l-1 -401 436 -2 c239 -2 434 0 433 4 -2 3 -104 99 -228
214 -487 449 -566 522 -602 553 l-36 32 -2 -400z"/>
<path d="M4573 6562 c-237 -218 -432 -399 -432 -402 -1 -3 195 -4 434 -2 l435
2 0 400 c0 220 -1 400 -2 400 -2 -1 -197 -179 -435 -398z"/>
<path d="M2748 5892 l-708 -2 0 -750 0 -750 145 0 145 0 0 239 c0 222 1 241
18 253 11 7 259 231 552 498 294 267 541 490 549 497 9 6 14 13 11 15 -3 2
-323 2 -712 0z"/>
<path d="M4192 5855 c24 -22 278 -253 566 -513 l523 -474 -3 -239 -3 -239 143
0 142 0 0 750 0 750 -706 2 -705 3 43 -40z"/>
<path d="M3135 5237 l-530 -482 -5 -656 -5 -657 45 38 c25 21 171 149 325 285
154 136 375 331 492 434 l212 186 1 668 c0 367 -1 667 -2 667 -2 0 -241 -218
-533 -483z"/>
<path d="M3940 5057 l0 -662 218 -191 c225 -198 804 -706 835 -732 16 -14 17
17 17 630 l0 645 -535 486 -535 487 0 -663z"/>
</g>
</svg>
