<?xml version="1.0" standalone="no"?>
<!DOCTYPE svg PUBLIC "-//W3C//DTD SVG 20010904//EN"
 "http://www.w3.org/TR/2001/REC-SVG-20010904/DTD/svg10.dtd">
<svg version="1.0" xmlns="http://www.w3.org/2000/svg"
 width="810.000000pt" height="810.000000pt" viewBox="0 0 810.000000 810.000000"
 preserveAspectRatio="xMidYMid meet">

<g transform="translate(0.000000,810.000000) scale(0.100000,-0.100000)"
fill="#000000" stroke="none">
<path d="M0 4050 l0 -4050 4050 0 4050 0 0 4050 0 4050 -4050 0 -4050 0 0
-4050z m3810 720 c0 -5 -4 -10 -10 -10 -5 0 -10 5 -10 10 0 6 5 10 10 10 6 0
10 -4 10 -10z m60 -44 c0 -8 3 -21 6 -30 10 -27 -12 -18 -24 9 -15 33 -15 35
3 35 8 0 15 -6 15 -14z m274 -27 c-3 -5 -10 -7 -15 -3 -5 3 -7 10 -3 15 3 5
10 7 15 3 5 -3 7 -10 3 -15z m-464 -1 c0 -9 3 -9 12 0 7 7 23 12 35 12 21 0
22 -3 13 -20 -7 -14 -21 -20 -45 -20 -35 0 -51 12 -40 30 9 14 25 13 25 -2z
m-73 -30 c-3 -7 -5 -2 -5 12 0 14 2 19 5 13 2 -7 2 -19 0 -25z m273 -18 c11 6
20 14 20 18 0 12 58 14 65 2 10 -17 -5 -33 -20 -20 -7 6 -20 8 -29 4 -18 -7
-22 -24 -6 -24 6 0 10 -4 10 -10 0 -5 -15 -7 -32 -5 -18 3 -26 2 -18 -1 32
-14 42 -27 28 -35 -8 -6 -9 -9 -2 -9 7 0 19 11 28 25 9 14 25 25 36 25 12 0
20 7 20 16 0 26 26 44 64 44 35 0 49 -14 24 -23 -8 -3 -6 -7 7 -12 11 -4 29
-11 41 -17 11 -5 24 -8 30 -6 5 2 10 -1 10 -7 2 -18 -8 -35 -21 -35 -6 0 -12
-13 -13 -30 -1 -27 3 -30 28 -30 16 0 32 4 35 10 3 6 21 2 43 -10 20 -11 46
-20 58 -20 18 0 21 -4 16 -22 -4 -18 -2 -20 17 -15 25 6 43 -19 35 -50 -3 -12
-1 -24 5 -27 6 -4 11 -20 11 -35 0 -25 3 -28 25 -23 15 2 25 0 25 -7 0 -6 -8
-11 -17 -12 -10 0 7 -8 38 -17 66 -20 165 -100 200 -162 12 -21 25 -38 28 -36
3 2 7 -6 7 -17 1 -12 9 -55 18 -95 39 -171 -38 -353 -184 -439 -111 -66 -276
-69 -390 -7 -19 10 -44 19 -55 19 -11 0 -20 7 -20 15 -1 23 -16 42 -30 36 -7
-2 -18 1 -24 7 -15 15 -41 18 -41 5 0 -6 -6 -5 -15 2 -8 7 -15 17 -15 22 0 6
7 5 15 -2 12 -10 15 -10 15 1 0 11 2 11 10 -1 8 -13 10 -12 10 3 0 10 5 15 10
12 16 -10 11 1 -7 16 -14 12 -16 12 -8 0 6 -10 4 -12 -4 -7 -7 5 -10 15 -7 23
4 8 2 11 -5 7 -8 -4 -9 1 -4 17 5 19 4 21 -4 9 -10 -13 -11 -13 -11 0 0 13 -1
13 -10 0 -8 -13 -13 -12 -37 7 -15 11 -27 28 -25 37 2 9 -4 16 -13 16 -9 0
-13 -4 -10 -10 8 -12 -5 -13 -24 -1 -12 8 -12 12 -2 24 7 10 8 17 2 21 -11 7
-43 -33 -36 -44 3 -4 19 -10 36 -14 22 -4 30 -10 25 -21 -3 -8 3 -19 12 -25
15 -10 14 -11 -5 -7 -28 6 -31 -9 -3 -16 11 -3 20 -12 20 -20 0 -18 -42 -31
-51 -16 -3 6 -17 -3 -33 -21 -14 -17 -23 -37 -20 -42 4 -6 3 -9 -2 -5 -12 7
-86 -48 -77 -57 4 -4 -1 -4 -11 0 -15 6 -17 4 -11 -6 5 -8 4 -11 -2 -7 -5 3
-36 -1 -69 -10 -119 -31 -250 -5 -351 70 -103 76 -166 270 -134 409 5 21 5 36
1 33 -5 -3 -12 0 -16 6 -4 8 -3 9 4 5 13 -8 45 61 35 77 -3 5 -1 7 4 4 6 -4
13 0 17 8 3 8 0 17 -6 21 -7 4 -8 3 -4 -4 4 -7 2 -12 -4 -12 -7 0 -10 6 -7 13
2 6 11 11 21 9 10 -2 16 4 16 17 0 11 6 26 14 33 11 11 8 17 -18 40 -23 21
-27 28 -14 28 9 0 21 -7 26 -16 6 -12 17 -15 32 -11 17 4 20 3 11 -6 -21 -21
-11 -28 12 -7 12 12 34 29 50 38 15 9 27 20 27 24 0 13 -12 9 -24 -8 -16 -22
-64 -26 -62 -5 0 9 6 19 11 23 6 4 0 8 -12 8 -26 0 -39 18 -25 32 8 8 15 8 26
-1 17 -14 36 -7 36 14 0 8 7 11 20 8 24 -6 25 -11 5 -33 -15 -16 -14 -17 11
-17 18 0 22 2 13 8 -10 6 -11 9 -1 9 6 0 12 7 12 15 0 9 8 14 21 12 12 -1 24
4 26 11 3 7 -4 12 -19 12 l-23 1 24 20 c20 16 22 22 11 29 -8 5 -21 5 -30 0
-11 -6 -21 -5 -28 2 -19 19 -14 30 11 27 12 -1 34 4 50 11 21 10 30 11 39 2
17 -17 31 -15 25 3 -8 19 10 30 27 16 7 -6 16 -8 19 -4 12 11 8 21 -10 25 -12
3 -4 9 21 16 22 6 43 9 48 6 5 -3 9 0 7 7 -4 35 0 42 18 28 9 -8 19 -13 22
-11 3 2 8 -5 11 -14 6 -17 7 -17 17 0 5 10 14 17 19 16 5 0 10 8 12 20 4 26
22 26 22 0 0 -12 7 -20 16 -20 11 0 15 6 11 19 -6 26 9 52 18 29 4 -10 13 -14
22 -11 13 5 14 3 3 -18 -23 -42 -21 -67 6 -73 13 -4 24 -13 24 -21 0 -8 5 -15
10 -15 22 0 6 29 -25 46 -24 13 -26 34 -5 44 27 14 65 29 88 35 26 7 32 55 7
55 -8 0 -15 -7 -15 -15 0 -8 -4 -15 -10 -15 -5 0 -13 -1 -16 -2 -4 -2 -8 9
-10 24 -3 29 22 46 40 28 15 -15 26 -12 27 8 0 13 3 11 9 -6 8 -19 13 -21 30
-12z m-166 -9 c22 -19 20 -34 -3 -21 -27 14 -41 13 -41 -5 0 -8 -4 -15 -10
-15 -14 0 -12 28 2 44 15 16 30 15 52 -3z m-89 -11 c3 -5 1 -10 -4 -10 -6 0
-11 5 -11 10 0 6 2 10 4 10 3 0 8 -4 11 -10z m-140 -10 c3 -6 -1 -13 -10 -16
-19 -8 -30 0 -20 15 8 14 22 14 30 1z m275 -20 c0 -5 -2 -10 -4 -10 -3 0 -8 5
-11 10 -3 6 -1 10 4 10 6 0 11 -4 11 -10z m467 4 c-3 -3 -12 -4 -19 -1 -8 3
-5 6 6 6 11 1 17 -2 13 -5z m-623 -25 c-3 -5 -10 -7 -15 -3 -5 3 -7 10 -3 15
3 5 10 7 15 3 5 -3 7 -10 3 -15z m-1125 -136 c28 -82 96 -278 151 -438 54
-159 99 -288 99 -285 1 3 35 102 77 220 41 118 84 241 95 272 11 32 17 63 13
69 -4 7 -3 9 3 6 6 -4 32 56 64 146 l54 152 78 3 c42 2 77 1 77 -1 0 -2 -9
-28 -19 -58 -10 -30 -22 -63 -26 -74 -6 -17 -5 -17 5 -5 9 13 11 12 7 -5 -2
-11 -9 -19 -18 -17 -8 2 -11 0 -7 -4 4 -4 4 -12 -1 -18 -20 -23 -71 -181 -65
-201 4 -14 2 -16 -4 -7 -6 9 -27 -37 -67 -145 -137 -374 -196 -528 -206 -534
-9 -5 -131 -2 -134 4 -1 1 -45 128 -99 282 -54 154 -136 387 -182 519 -46 131
-84 245 -84 252 0 11 17 14 69 14 l68 0 52 -147z m1718 131 c5 -14 -45 -36
-52 -24 -10 16 4 30 22 23 12 -5 14 -3 8 7 -5 8 -3 11 5 8 8 -2 15 -9 17 -14z
m1373 -14 c76 -39 108 -69 140 -133 22 -43 30 -74 30 -111 0 -87 -17 -126 -79
-187 l-58 -56 34 -19 c43 -23 100 -86 121 -133 9 -21 16 -65 16 -106 0 -57 -5
-81 -27 -127 -32 -66 -100 -131 -165 -161 -64 -28 -190 -35 -263 -13 -95 28
-195 123 -227 215 -11 30 -10 31 33 50 79 35 78 35 99 -14 25 -62 94 -121 156
-134 53 -11 128 2 174 32 92 61 113 184 44 263 -48 54 -95 74 -185 77 l-78 2
-3 61 -3 61 74 5 c129 8 198 67 199 168 0 66 -25 109 -82 138 -51 26 -133 30
-183 8 -35 -14 -83 -65 -98 -103 -9 -23 -9 -23 -46 -7 -21 9 -48 20 -60 25
-36 13 -28 40 33 116 36 44 84 78 143 100 57 21 205 12 261 -17z m-1290 16 c0
-11 -19 -15 -25 -6 -3 5 1 10 9 10 9 0 16 -2 16 -4z m-845 -37 c4 -6 5 -12 2
-15 -7 -7 -37 7 -37 17 0 13 27 11 35 -2z m60 1 c3 -5 -1 -10 -9 -10 -8 0 -18
5 -21 10 -3 6 1 10 9 10 8 0 18 -4 21 -10z m905 -140 c0 -5 -4 -10 -10 -10 -5
0 -10 5 -10 10 0 6 5 10 10 10 6 0 10 -4 10 -10z m-1225 -20 c3 -5 -1 -10 -9
-10 -9 0 -16 5 -16 10 0 6 4 10 9 10 6 0 13 -4 16 -10z m122 4 c-3 -3 -12 -4
-19 -1 -8 3 -5 6 6 6 11 1 17 -2 13 -5z m1110 -36 c-3 -8 -6 -5 -6 6 -1 11 2
17 5 13 3 -3 4 -12 1 -19z m78 -8 c-3 -5 -13 -10 -21 -10 -8 0 -12 5 -9 10 3
6 13 10 21 10 8 0 12 -4 9 -10z m-1358 -22 c-3 -8 -6 -5 -6 6 -1 11 2 17 5 13
3 -3 4 -12 1 -19z m43 2 c0 -5 -5 -10 -11 -10 -5 0 -7 5 -4 10 3 6 8 10 11 10
2 0 4 -4 4 -10z m1320 -11 c0 -13 -16 -18 -38 -12 -32 8 -27 20 8 20 17 0 30
-4 30 -8z m38 -27 c6 -18 -15 -14 -22 4 -4 10 -1 14 6 12 6 -2 14 -10 16 -16z
m-1413 -84 c-6 -19 -5 -21 6 -10 19 18 45 16 30 -2 -14 -16 -46 -15 -45 2 2
25 4 32 10 32 3 0 2 -10 -1 -22z m-65 -158 c0 -5 -4 -10 -10 -10 -5 0 -10 5
-10 10 0 6 5 10 10 10 6 0 10 -4 10 -10z m877 -354 c-4 -9 -13 -13 -22 -10
-20 8 -19 22 3 26 22 5 26 2 19 -16z m-87 -68 c0 -4 -9 -8 -20 -8 -11 0 -23 0
-27 -1 -4 0 -9 3 -10 8 -2 4 10 8 27 8 16 1 30 -3 30 -7z m62 0 c-9 -9 -15 -9
-24 0 -9 9 -7 12 12 12 19 0 21 -3 12 -12z m245 -114 c-3 -3 -12 -4 -19 -1 -8
3 -5 6 6 6 11 1 17 -2 13 -5z"/>
<path d="M4000 4640 c0 -5 4 -10 9 -10 5 0 11 -9 14 -20 3 -12 14 -20 26 -20
30 0 26 28 -4 36 -14 3 -25 10 -25 15 0 5 -4 9 -10 9 -5 0 -10 -4 -10 -10z"/>
<path d="M4080 4605 c0 -8 7 -15 15 -15 8 0 15 4 15 9 0 5 -7 11 -15 15 -9 3
-15 0 -15 -9z"/>
<path d="M3955 4590 c-3 -5 -1 -10 5 -10 6 0 8 -5 5 -10 -5 -8 -12 -7 -22 1
-12 10 -16 10 -23 -1 -5 -8 -23 -14 -41 -15 -18 0 -34 -6 -37 -14 -3 -9 1 -11
16 -7 15 5 24 1 32 -14 12 -23 32 -28 24 -6 -7 20 34 42 49 27 6 -6 18 -11 26
-11 12 0 12 3 3 12 -7 7 -12 22 -12 35 0 24 -14 31 -25 13z"/>
<path d="M4000 4563 c0 -10 6 -12 21 -8 18 6 20 4 14 -14 -5 -17 -2 -21 14
-21 11 0 22 9 26 21 9 26 5 30 -39 34 -27 2 -36 -1 -36 -12z"/>
<path d="M3784 4545 c-3 -8 -3 -19 1 -25 9 -14 35 6 35 26 0 19 -29 18 -36 -1z"/>
<path d="M3540 4514 c0 -14 5 -24 11 -22 6 2 10 7 10 11 -1 4 -1 14 -1 22 0 8
-4 15 -10 15 -5 0 -10 -12 -10 -26z"/>
<path d="M4216 4484 c-8 -20 11 -45 29 -38 10 4 10 11 1 30 -13 28 -21 30 -30
8z"/>
<path d="M3680 4486 c0 -2 7 -7 16 -10 8 -3 12 -2 9 4 -6 10 -25 14 -25 6z"/>
<path d="M3928 4478 c18 -18 15 -31 -5 -24 -15 5 -15 3 1 -9 13 -10 23 -12 30
-5 5 5 19 11 31 11 16 1 17 2 3 6 -10 2 -18 11 -18 19 0 9 -10 14 -27 14 -21
0 -24 -3 -15 -12z"/>
<path d="M4130 4477 c0 -7 6 -19 12 -25 10 -10 10 -17 0 -32 -10 -17 -10 -20
3 -20 8 0 15 8 15 19 0 10 7 24 15 31 13 11 12 14 -11 26 -32 17 -34 17 -34 1z"/>
<path d="M3515 4469 c-10 -15 3 -25 16 -12 7 7 7 13 1 17 -6 3 -14 1 -17 -5z"/>
<path d="M3627 4473 c-4 -3 -7 -11 -7 -17 0 -6 5 -5 12 2 6 6 9 14 7 17 -3 3
-9 2 -12 -2z"/>
<path d="M4034 4449 c-7 -12 12 -29 34 -29 6 0 12 -5 12 -12 0 -6 2 -9 5 -6 3
3 0 17 -6 32 -13 27 -33 34 -45 15z"/>
<path d="M3449 4443 c-1 -5 -1 -12 0 -16 1 -5 -8 -5 -20 -2 -15 5 -19 4 -15
-4 4 -6 0 -11 -9 -11 -12 0 -15 -6 -10 -21 5 -14 2 -25 -6 -30 -12 -8 -11 -11
1 -19 8 -5 24 -9 35 -9 17 1 17 2 3 6 -18 5 -25 23 -9 23 5 0 7 8 4 18 -3 12
4 23 21 32 14 7 26 19 26 27 0 13 -19 19 -21 6z"/>
<path d="M3653 4432 c-9 -6 -7 -11 7 -20 17 -11 20 -10 20 8 0 21 -7 25 -27
12z"/>
<path d="M3480 4420 c0 -6 7 -10 15 -10 8 0 15 2 15 4 0 2 -7 6 -15 10 -8 3
-15 1 -15 -4z"/>
<path d="M4190 4420 c-13 -8 -12 -10 3 -10 9 0 17 5 17 10 0 12 -1 12 -20 0z"/>
<path d="M4306 4423 c-11 -11 -6 -23 8 -23 8 0 17 4 20 9 7 10 -19 23 -28 14z"/>
<path d="M3450 4381 c-7 -15 -7 -21 0 -21 12 0 25 28 17 36 -3 3 -10 -4 -17
-15z"/>
<path d="M4236 4377 c-3 -11 -3 -23 -1 -26 3 -2 5 1 5 8 0 8 7 10 19 6 29 -9
34 10 7 23 -21 9 -25 8 -30 -11z"/>
<path d="M3935 4350 c-3 -5 -1 -10 4 -10 6 0 11 5 11 10 0 6 -2 10 -4 10 -3 0
-8 -4 -11 -10z"/>
<path d="M4110 4340 c0 -5 5 -10 10 -10 6 0 10 5 10 10 0 6 -4 10 -10 10 -5 0
-10 -4 -10 -10z"/>
<path d="M3340 4320 c-8 -5 -10 -10 -5 -10 6 0 17 5 25 10 8 5 11 10 5 10 -5
0 -17 -5 -25 -10z"/>
<path d="M4268 4313 c6 -2 18 -2 25 0 6 3 1 5 -13 5 -14 0 -19 -2 -12 -5z"/>
<path d="M3558 4303 c7 -3 16 -2 19 1 4 3 -2 6 -13 5 -11 0 -14 -3 -6 -6z"/>
<path d="M3840 4274 c0 -8 5 -12 10 -9 6 3 10 10 10 16 0 5 -4 9 -10 9 -5 0
-10 -7 -10 -16z"/>
<path d="M3390 4160 c-11 -8 -7 -9 15 -4 37 8 45 14 19 14 -10 0 -26 -5 -34
-10z"/>
<path d="M4250 4150 c0 -11 4 -20 8 -20 4 0 8 9 8 20 0 11 -4 20 -8 20 -4 0
-8 -9 -8 -20z"/>
<path d="M4380 4140 c-21 -7 -21 -8 -5 -9 11 0 27 4 35 9 18 11 5 11 -30 0z"/>
<path d="M3323 4123 c-13 -8 -23 -21 -23 -27 0 -6 4 -5 9 3 6 10 13 10 28 3
12 -7 25 -7 34 -1 10 6 10 9 2 9 -7 0 -12 5 -10 11 3 18 -16 19 -40 2z m34 -7
c0 -8 -6 -12 -14 -9 -7 3 -10 9 -7 14 8 14 21 11 21 -5z"/>
<path d="M4420 4129 c-13 -9 -12 -10 3 -5 11 3 17 0 17 -10 0 -11 6 -14 16
-10 9 3 18 6 22 6 7 0 -31 29 -38 30 -3 0 -12 -5 -20 -11z"/>
<path d="M4207 4110 c-3 -12 0 -20 8 -20 8 0 11 8 8 20 -3 11 -7 20 -8 20 -1
0 -5 -9 -8 -20z"/>
<path d="M4318 4123 c6 -2 18 -2 25 0 6 3 1 5 -13 5 -14 0 -19 -2 -12 -5z"/>
<path d="M4370 4100 c0 -11 -4 -20 -10 -20 -5 0 -7 7 -4 15 4 9 0 15 -10 15
-9 0 -16 -8 -16 -20 0 -11 -6 -20 -14 -20 -8 0 -16 -7 -20 -15 -3 -9 0 -15 9
-15 9 0 15 -10 15 -26 0 -14 -4 -23 -9 -19 -12 7 -21 -7 -23 -40 -2 -21 -7
-25 -28 -23 -27 3 -50 -26 -50 -63 0 -23 -8 -24 -32 -2 -12 11 -18 12 -18 3 0
-8 -8 -10 -25 -6 l-26 7 21 -21 c16 -16 20 -28 15 -51 -5 -22 -3 -29 9 -29 20
0 22 -46 2 -65 -21 -21 -28 -5 -10 23 9 13 11 21 5 18 -6 -4 -11 -1 -11 6 -1
9 -5 7 -14 -5 -13 -16 -14 -16 -30 5 -9 13 -14 16 -10 8 19 -38 58 -80 76 -80
10 0 17 -4 14 -8 -7 -12 54 -39 106 -47 92 -14 185 32 240 119 31 48 33 56 33
146 0 52 -4 104 -9 115 -8 19 -9 19 -17 -5 -7 -20 -8 -19 -4 10 6 46 -21 90
-50 80 -12 -4 -31 0 -50 12 -39 23 -55 23 -55 -2z m40 -15 c-12 -15 -30 -12
-30 6 0 5 10 9 21 9 18 0 19 -2 9 -15z m90 -40 c0 -5 -5 -3 -10 5 -5 8 -10 20
-10 25 0 6 5 3 10 -5 5 -8 10 -19 10 -25z m-35 5 c-3 -5 -11 -10 -16 -10 -6 0
-7 5 -4 10 3 6 11 10 16 10 6 0 7 -4 4 -10z m-115 -20 c0 -5 -4 -10 -10 -10
-5 0 -10 5 -10 10 0 6 5 10 10 10 6 0 10 -4 10 -10z m40 0 c0 -5 -4 -10 -10
-10 -5 0 -10 5 -10 10 0 6 5 10 10 10 6 0 10 -4 10 -10z m123 -70 c3 -11 1
-18 -4 -14 -5 3 -9 12 -9 20 0 20 7 17 13 -6z m-188 -10 c3 -5 1 -10 -4 -10
-6 0 -11 5 -11 10 0 6 2 10 4 10 3 0 8 -4 11 -10z m5 -50 c0 -5 -7 -10 -15
-10 -8 0 -15 5 -15 10 0 6 7 10 15 10 8 0 15 -4 15 -10z m-133 -81 c-9 -6 -17
-17 -17 -24 0 -8 -8 -15 -17 -15 -13 0 -14 3 -6 11 6 6 9 17 7 23 -2 6 7 12
23 13 22 1 24 -1 10 -8z m133 -19 c0 -15 -7 -20 -26 -20 l-26 0 23 20 c30 24
29 24 29 0z m0 -140 c0 -5 -2 -10 -4 -10 -3 0 -8 5 -11 10 -3 6 -1 10 4 10 6
0 11 -4 11 -10z"/>
<path d="M3491 4084 c0 -11 3 -14 6 -6 3 7 2 16 -1 19 -3 4 -6 -2 -5 -13z"/>
<path d="M3275 4069 c-4 -6 -5 -12 -2 -15 2 -3 7 2 10 11 7 17 1 20 -8 4z"/>
<path d="M3305 4050 c3 -5 8 -10 11 -10 2 0 4 5 4 10 0 6 -5 10 -11 10 -5 0
-7 -4 -4 -10z"/>
<path d="M3471 4034 c0 -11 3 -14 6 -6 3 7 2 16 -1 19 -3 4 -6 -2 -5 -13z"/>
<path d="M3821 4034 c0 -11 3 -14 6 -6 3 7 2 16 -1 19 -3 4 -6 -2 -5 -13z"/>
<path d="M4205 4030 c-12 -13 -14 -20 -5 -20 8 0 10 -8 6 -25 -4 -14 -2 -25 3
-25 14 0 18 10 25 53 7 41 -2 47 -29 17z"/>
<path d="M3256 4032 c-3 -5 1 -9 9 -9 8 0 12 4 9 9 -3 4 -7 8 -9 8 -2 0 -6 -4
-9 -8z"/>
<path d="M3366 4024 c-4 -10 -1 -14 6 -12 15 5 23 28 10 28 -5 0 -13 -7 -16
-16z"/>
<path d="M3288 3993 c6 -2 18 -2 25 0 6 3 1 5 -13 5 -14 0 -19 -2 -12 -5z"/>
<path d="M3363 3993 c9 -2 23 -2 30 0 6 3 -1 5 -18 5 -16 0 -22 -2 -12 -5z"/>
<path d="M3428 3993 c7 -3 16 -2 19 1 4 3 -2 6 -13 5 -11 0 -14 -3 -6 -6z"/>
<path d="M4242 3989 c2 -7 10 -15 17 -17 8 -3 12 1 9 9 -2 7 -10 15 -17 17 -8
3 -12 -1 -9 -9z"/>
<path d="M3832 3970 c0 -14 2 -19 5 -12 2 6 2 18 0 25 -3 6 -5 1 -5 -13z"/>
<path d="M4061 3964 c0 -11 3 -14 6 -6 3 7 2 16 -1 19 -3 4 -6 -2 -5 -13z"/>
<path d="M4174 3967 c-3 -9 -3 -21 1 -27 4 -6 1 -17 -5 -25 -10 -12 -9 -15 9
-15 20 0 21 4 15 38 -8 45 -12 50 -20 29z"/>
<path d="M4100 3954 c0 -8 5 -12 10 -9 6 3 10 10 10 16 0 5 -4 9 -10 9 -5 0
-10 -7 -10 -16z"/>
<path d="M4135 3960 c-3 -5 1 -10 9 -10 9 0 16 5 16 10 0 6 -4 10 -9 10 -6 0
-13 -4 -16 -10z"/>
<path d="M4083 3901 c-35 -30 -27 -43 12 -20 35 21 46 39 23 39 -7 -1 -23 -9
-35 -19z"/>
<path d="M3241 3840 c-1 -41 28 -108 54 -130 17 -14 18 -13 12 3 -4 11 -3 16
4 12 5 -4 7 -15 4 -24 -4 -13 7 -24 45 -45 28 -15 57 -25 65 -22 8 3 17 0 21
-6 9 -14 94 -4 136 18 36 18 88 63 88 76 0 16 -20 7 -21 -9 -1 -10 -6 -3 -12
16 -8 26 -8 36 1 39 7 2 12 8 12 13 0 6 -8 6 -19 -1 -34 -18 -45 -12 -27 14 9
14 12 27 8 30 -13 8 -29 -7 -37 -34 -8 -25 -22 -40 -39 -40 -4 0 -6 7 -2 15 3
9 0 15 -9 15 -7 0 -17 -9 -20 -20 -3 -11 -11 -20 -16 -20 -5 0 -9 -5 -9 -11 0
-7 11 -9 30 -5 20 3 29 2 25 -4 -4 -6 2 -18 11 -27 16 -17 16 -18 -14 -27 -18
-5 -32 -15 -32 -22 0 -8 -9 -14 -20 -14 -13 0 -20 7 -20 19 0 33 -49 49 -96
31 -14 -6 -26 -6 -29 0 -4 6 4 10 17 10 13 0 30 4 38 10 9 6 17 5 21 -2 4 -6
11 -4 20 7 8 9 23 25 34 37 17 18 18 20 3 15 -12 -4 -18 -1 -18 8 0 9 9 13 26
12 15 -1 29 4 32 12 3 10 -1 12 -16 9 -13 -4 -29 2 -41 14 -12 10 -21 17 -22
16 -1 -2 -2 -15 -3 -30 0 -15 -10 -38 -21 -50 l-20 -23 -3 23 c-3 20 -13 27
-35 23 -5 -1 -7 4 -4 11 2 7 11 12 19 10 20 -3 43 24 28 33 -6 4 -18 4 -26 1
-10 -4 -18 1 -21 14 -7 25 -51 27 -69 3 -12 -17 -13 -16 -23 7 -9 24 -10 23
-10 -10z m69 -74 c0 -2 -7 -9 -15 -16 -13 -11 -14 -10 -9 4 5 14 24 23 24 12z
m30 -16 c0 -5 -4 -10 -10 -10 -5 0 -10 5 -10 10 0 6 5 10 10 10 6 0 10 -4 10
-10z m287 -40 c-1 -11 -5 -20 -9 -20 -4 0 -8 9 -8 20 0 11 4 20 9 20 6 0 9 -9
8 -20z m-32 -30 c0 -15 -53 -45 -63 -35 -3 2 4 8 14 12 10 4 25 12 31 19 10
10 9 14 -5 18 -13 4 -13 4 3 3 11 -1 20 -9 20 -17z m-188 -26 c-3 -3 -12 -4
-19 -1 -8 3 -5 6 6 6 11 1 17 -2 13 -5z"/>
<path d="M3457 3840 c-3 -11 -2 -20 3 -20 4 0 10 9 13 20 3 11 2 20 -3 20 -4
0 -10 -9 -13 -20z"/>
<path d="M3755 3829 c-4 -6 -5 -12 -2 -15 2 -3 7 2 10 11 7 17 1 20 -8 4z"/>
<path d="M4090 3831 c0 -6 5 -13 10 -16 6 -3 10 1 10 9 0 9 -4 16 -10 16 -5 0
-10 -4 -10 -9z"/>
<path d="M3530 3805 c0 -8 7 -15 15 -15 8 0 15 7 15 15 0 8 -7 15 -15 15 -8 0
-15 -7 -15 -15z"/>
<path d="M4106 3768 c3 -5 10 -6 15 -3 13 9 11 12 -6 12 -8 0 -12 -4 -9 -9z"/>
<path d="M3727 3749 c7 -7 15 -10 18 -7 3 3 -2 9 -12 12 -14 6 -15 5 -6 -5z"/>
<path d="M3780 3726 c0 -2 7 -7 16 -10 8 -3 12 -2 9 4 -6 10 -25 14 -25 6z"/>
<path d="M3455 3702 c-9 -9 -6 -24 4 -17 5 3 16 -1 24 -9 12 -13 17 -13 33 -1
11 7 16 17 12 21 -9 9 -65 14 -73 6z"/>
<path d="M3996 3627 c3 -10 9 -15 12 -12 3 3 0 11 -7 18 -10 9 -11 8 -5 -6z"/>
</g>
</svg>
